<?xml version="1.0" standalone="no"?>
<!DOCTYPE svg PUBLIC "-//W3C//DTD SVG 1.1//EN" "http://www.w3.org/Graphics/SVG/1.1/DTD/svg11.dtd">
<svg width="100%" height="100%" viewBox="0 0 331 352" version="1.1" xmlns="http://www.w3.org/2000/svg" xmlns:xlink="http://www.w3.org/1999/xlink" xml:space="preserve" style="fill-rule:evenodd;clip-rule:evenodd;stroke-linejoin:round;stroke-miterlimit:1.41421;">
    <g transform="matrix(1,0,0,1,-137.947,-219.9)">
        <path d="M272.4,383.1C269.8,382.7 267.3,382.5 264.8,381.9C260.6,381 256.6,379.4 252.4,378.9C247.3,378.3 242.2,378.2 237.1,378.3C232.3,378.3 227.6,378.9 221.6,379.2C224.4,376 226.4,373.7 229.4,370.3C220.5,369.7 212.7,369.3 204,368.7C208.7,331.8 198.6,299 175.1,268.4C183.4,269.5 190.5,270.4 197.6,271.6C202.5,272.4 207.3,274.1 212.2,274.9C213.7,275.1 216.1,274.2 216.9,273C234.8,248.1 259.2,237.2 289.5,237.7C310.8,238 329.6,244.1 344.5,259.6C349.5,264.8 353.3,271.2 357.4,277.2C358.9,279.4 360,281 363,281.1C368.3,281.2 372.7,283.2 375.2,288.3C377.9,293.9 376.3,299.1 372.4,303C368.6,306.8 367.2,310.9 366.7,316.1C366,322.7 364.1,329.1 362.6,336C363.4,336.4 364.6,337 365.7,337.5C369.1,339.2 370.9,341.9 370.1,345.6C368,355.3 363.4,363.4 353.9,367.5C351.8,368.4 348.5,369.1 346.8,368C343.6,366 342,367.3 339.6,369.1C333.1,373.6 326.3,377.7 319.1,382.3C321.6,386.9 322.8,392.5 330.1,394.8C345.7,399.8 354.5,413.8 353,429.4C351.6,444.4 337.9,458.4 321.6,460.3C316.2,461 315.4,463.2 315.1,467.8C314.4,478.4 313.9,489.2 311.7,499.5C307.8,518.1 303.7,521.5 281.5,525.6C271.2,527.5 260.7,527.9 250.3,530C255.2,530 260.1,530.2 265,529.9C268.2,529.7 269.9,531 271.1,533.8C279.4,552.9 264.3,573.9 243.6,571.5C228.8,569.8 217.4,561.9 210.9,548.8C201.8,530.5 202.4,511.3 211.5,493C217.3,481.2 226.3,478 239,481.4C247.5,483.7 256,486.1 264.7,487.2C277.4,488.8 278.8,487.1 280.4,474.8C281.4,466.9 281.1,459.3 278.2,451.7C274.4,441.8 275,432 278.5,421.9C279.7,418.4 277.9,413.8 277.5,409.1C278,408.9 279.2,408.2 281.7,407C265.5,406 251,407.3 237.9,415.2C232.2,418.6 227.2,423.1 222,427.1C219.5,429.1 219.6,431.2 221.1,434.1C223.7,438.9 226.2,443.9 227.6,449.1C229.8,457.3 225.7,464.1 217.5,467.2C218.8,464.4 220,461.7 221.2,459C220.9,458.7 220.6,458.4 220.2,458.2C212.8,469.1 205,478.9 189,473.6C191,471.4 192.5,469.7 194.5,467.5C176.6,474.1 168.2,471.9 164.1,460.3C169.3,459.1 174.5,457.9 179.8,456.7C179.7,456.2 179.6,455.8 179.5,455.3C160.9,457.8 152.3,454 151.7,443.1C151.3,435.9 159.4,424.6 172.2,424.8C171.4,428.3 170.6,431.8 169.8,435.3C170.2,435.5 170.7,435.7 171.1,435.9C173.2,428.4 177,422.7 184.6,419.7C187.1,418.7 188.5,414.9 190.2,412.3C201.4,395.3 218.6,388.6 237.5,385.9C249.1,384.2 261,384.3 272.8,383.6C272.3,383.5 272.4,383.3 272.4,383.1ZM363.5,311C355,313.1 347.8,314.2 342,308.4C335.6,301.9 338.8,295 342.3,288.9C336.1,285.4 330.3,282.1 323.8,278.5C324.5,280.3 324.8,281.2 325.2,282.1C330.6,295.4 327.8,308 316.1,316.3C310.2,320.6 303.1,323.5 296.1,325.9C288.3,328.6 279.9,329.8 271.9,331.9C263.9,334 256.5,337.4 250.7,343.5C245,349.4 243.6,356.8 248.3,363.5C251.6,368 256.1,372.4 261,375C275.4,382.7 291,382.9 306.8,379.8C318.7,377.5 330,373.8 340.1,366.9C341.2,366.2 342.2,364.2 342,363.1C341.8,362 340,361.1 338.8,360.3C338.2,359.9 337.3,359.9 336.5,359.7C336.5,359.5 336.6,359.2 336.6,359C338.8,358.6 341,358.3 342.1,358.1C343.6,361.3 344.2,365 346,365.7C348.3,366.6 352.2,365.8 354.2,364.2C358.3,360.9 362.2,357 364.9,352.6C366.7,349.5 367.6,344.7 366.6,341.4C365.2,337.2 360.3,339.1 356.8,339.1C356.6,339.1 356.5,339 356.1,338.9C355.7,337.6 355.2,336.2 354.6,334.3C356.9,335.7 359.2,340.8 360.5,335.5C362.4,327.7 362.5,319.7 363.5,311ZM289.8,322.9C323.9,322.9 329.4,295.6 319.3,276C309.8,257.6 282.3,245.8 262.3,251.4C243,256.8 234.5,274.4 242.5,292.8C251.6,314 269.1,321.8 289.8,322.9ZM333.9,253.8C332.8,261.1 331.1,262.9 326.4,261.8C318.4,259.9 310.8,250.8 310.4,242.7C308.3,242.2 306.1,241.7 304,241.3C303.7,242 303.4,242.4 303.5,242.6C311.1,261.7 322.9,277.2 341.9,286.4C342.8,286.8 344.2,287 345.2,286.7C355.3,283.3 355.7,282.1 349.9,273.1C349.1,271.8 348.3,270.5 347.4,269.4C343,264.1 338.4,259 333.9,253.8Z" style="fill:black;fill-rule:nonzero;"/>
    </g>
    <g transform="matrix(1,0,0,1,-137.947,-219.9)">
        <path d="M338.4,458.3C343.2,451.6 347.9,444.9 352.9,438.4C353.8,437.3 356,436.1 357.2,436.4C371.1,440.5 384.9,444.6 398.6,449.4C401.4,450.4 404.2,453.9 405.3,456.9C407.5,463.3 408.7,470.1 410,476.8C410.3,478.2 409.3,479.9 408.5,481.3C406.8,484.4 404.8,487.4 402.9,490.4C403.3,490.7 403.7,490.9 404.1,491.2C405.8,488.9 407.5,486.6 409.2,484.3C417,474.4 426.5,467 439.1,465C448.1,463.6 457.1,464.8 463.4,472.2C470.2,480.1 469.6,489.3 466.4,498.6C462.7,509.5 455.3,517.4 446.1,523.9C430.8,534.6 414.4,542.2 395.3,542.3C384.9,542.4 382.3,540.4 380.4,530.3C378,517.2 375.8,504.1 373.6,491C373.5,490.2 373.1,489.4 373,488.6C371.8,476.5 365.1,469.4 353.7,465.6C347.8,463.7 342.7,460.4 338.4,458.3Z" style="fill:black;fill-rule:nonzero;"/>
    </g>
    <g transform="matrix(1,0,0,1,-137.947,-219.9)">
        <path d="M406.4,361.2C405.3,372.1 411.4,379.4 420.6,381.2C423.4,381.7 425.7,384.9 428.2,386.9C428.1,387.5 427.9,388 427.8,388.6C425.7,389.3 423.6,390.6 421.6,390.4C417.4,390.1 414.5,392 411.4,394.4C395,407 376.2,412 355.7,410.7C353.4,410.5 350.5,408.7 349,406.8C344.3,400.6 338.6,395.7 331.4,393.5C326.2,392 323.7,389 322.5,383.9C327.3,384.7 332,385.6 336.7,386.2C355.7,388.6 372.5,383.3 387.9,372.3C393.3,368.4 398.2,364.7 396.8,356.9C396.4,354.7 397.2,352.3 397.6,350C399.8,336.7 413,331.7 423.5,340.1C431.9,346.9 435.6,360.5 431.4,370.5C429.5,374.9 426.5,378.9 421.2,378.9C415.3,378.9 411.5,375 409.3,369.7C408.2,367.2 407.6,364.7 406.4,361.2Z" style="fill:black;fill-rule:nonzero;"/>
    </g>
    <g transform="matrix(1,0,0,1,-137.947,-219.9)">
        <path d="M203.6,504.3C203.1,512.7 202.5,521.9 201.8,532C183,532.9 163.7,534.5 146.3,523.4C138.3,518.3 136,508.7 139.6,500C142.9,491.9 149.7,488.2 159.6,489.8C163.8,490.5 167.9,492.1 172,493.5C182.5,497 192.9,500.6 203.6,504.3Z" style="fill:black;fill-rule:nonzero;"/>
    </g>
    <g transform="matrix(1,0,0,1,-137.947,-219.9)">
        <path d="M417.2,334.5C417.5,333.4 417.8,332.3 418.1,331.5C415.7,332.4 413.1,333.4 409.7,334.7C412.2,326.3 420.1,320.6 427.8,320.3C435.1,320.1 440.8,323.1 443.1,328.5C446,335.3 442.6,345.8 435.2,352.4C431.5,344.2 425.5,338.3 417.2,334.5Z" style="fill:black;fill-rule:nonzero;"/>
    </g>
    <g transform="matrix(1,0,0,1,-137.947,-219.9)">
        <path d="M451.1,363.2C456.5,374.9 447.7,388.3 436.2,387.8C432.3,387.6 427.4,386.5 427.4,382.3C427.4,379.5 431,375.1 433.9,374.2C440.4,372.1 446.5,369.6 451.1,363.2Z" style="fill:black;fill-rule:nonzero;"/>
    </g>
    <g transform="matrix(1,0,0,1,-137.947,-219.9)">
        <path d="M446.7,338.8C451.8,340.6 454.1,344.5 453.5,350.8C452.7,359.7 444.2,368.8 434.1,370.7C435.2,364.9 435.6,359.2 437.6,354C439.7,348.8 443.4,344.1 446.7,338.8Z" style="fill:black;fill-rule:nonzero;"/>
    </g>
    <g transform="matrix(1,0,0,1,-137.947,-219.9)">
        <path d="M420.9,305.1C420.5,301.5 420.2,298.4 419.8,295.1C416,294.6 412.5,294.1 408.3,293.6C408.5,296.1 408.9,298.2 408.8,300.3C408.7,302 408.2,304.6 407.1,305C404.7,306 401.8,306 399.2,306.1C398.7,306.1 398.2,304.3 397.7,303.4C400,302.3 402.2,301.2 404.5,300.2C405.1,299.9 405.8,300 406.8,299.9C406.8,295.5 406.8,291.1 406.8,286.6C410.7,287.5 414.6,288.2 418.4,289.3C419.3,289.6 420.4,290.9 420.6,292C421.4,296.6 422.2,301.2 422.4,305.8C422.4,307.5 420.9,310.3 419.5,310.8C417.3,311.6 414.5,311 412,310.6C411.5,310.5 410.8,308.7 411.1,308.2C411.7,307.2 412.8,306 413.9,305.7C416,305.1 418.1,305.3 420.9,305.1Z" style="fill:black;fill-rule:nonzero;"/>
    </g>
    <g transform="matrix(1,0,0,1,-137.947,-219.9)">
        <path d="M272.7,236.4C268.5,237.4 263,238.6 256.8,240C257.3,233.3 257.7,227.1 258.1,219.9C263.5,225.9 268.2,231.3 272.7,236.4Z" style="fill:black;fill-rule:nonzero;"/>
    </g>
    <g transform="matrix(1,0,0,1,-137.947,-219.9)">
        <path d="M381.8,328.6C381.3,324.2 380.8,320 380.2,315.3C383.8,315.9 386.8,316.4 389.9,317C389.8,317.5 389.7,318 389.6,318.1C382.6,320 381.6,324.5 383.2,330.9C383.6,332.3 381.4,335.5 380,335.8C377.6,336.3 374.8,335.2 372.2,334.8C372.8,333.2 372.9,330.7 374,330.2C376.1,329.1 378.7,329.1 381.8,328.6Z" style="fill:black;fill-rule:nonzero;"/>
    </g>
    <g transform="matrix(1,0,0,1,-137.947,-219.9)">
        <path d="M305.3,229.7C306.8,232.9 307.7,234.9 308.9,237.5C307.4,237.4 306.6,237.4 305.9,237.3C303.8,236.9 301.7,236.4 298.6,235.8C301.1,233.5 303,231.8 305.3,229.7Z" style="fill:black;fill-rule:nonzero;"/>
    </g>
    <g transform="matrix(1,0,0,1,-137.947,-219.9)">
        <path d="M379.6,564.3C374.4,566.2 369.2,568.1 363.9,570C363.7,569.5 363.6,569.1 363.4,568.6C368.7,566.7 374,564.8 379.3,562.9C379.4,563.3 379.5,563.8 379.6,564.3Z" style="fill:black;fill-rule:nonzero;"/>
    </g>
    <g transform="matrix(1,0,0,1,-137.947,-219.9)">
        <path d="M381,569.9C386.1,567.9 391.2,565.9 396.3,563.9C396.5,564.3 396.6,564.7 396.8,565.1C391.7,567 386.6,569 381.4,570.9C381.3,570.6 381.1,570.3 381,569.9Z" style="fill:black;fill-rule:nonzero;"/>
    </g>
    <g transform="matrix(1,0,0,1,-137.947,-219.9)">
        <path d="M384.5,366.1C380.2,364.1 375.9,362.2 371.7,360.2C371.9,359.7 372.1,359.3 372.3,358.8C376.6,360.8 380.9,362.9 385.3,364.9C385,365.3 384.7,365.7 384.5,366.1Z" style="fill:black;fill-rule:nonzero;"/>
    </g>
    <g transform="matrix(1,0,0,1,-137.947,-219.9)">
        <path d="M363.5,311C362.5,319.7 362.4,327.7 360.4,335.3C359,340.6 356.8,335.5 354.5,334.1C355.1,336 355.6,337.4 356,338.7C356.4,338.8 356.6,338.9 356.7,338.9C360.2,338.9 365.1,337 366.5,341.2C367.6,344.5 366.7,349.3 364.8,352.4C362.1,356.8 358.2,360.7 354.1,364C352.1,365.6 348.2,366.3 345.9,365.5C344.1,364.8 343.5,361.1 342,357.9C340.9,358.1 338.7,358.5 336.5,358.8C336.5,359 336.4,359.3 336.4,359.5C337.2,359.7 338.1,359.7 338.7,360.1C339.9,360.9 341.7,361.8 341.9,362.9C342.1,364.1 341.1,366 340,366.7C329.9,373.6 318.6,377.4 306.7,379.6C290.9,382.6 275.3,382.4 260.9,374.8C256,372.2 251.5,367.9 248.2,363.3C243.4,356.7 244.8,349.2 250.6,343.3C256.5,337.3 263.9,333.9 271.8,331.7C279.8,329.6 288.2,328.4 296,325.7C303,323.3 310.1,320.3 316,316.1C327.6,307.8 330.5,295.2 325.1,281.9C324.7,281 324.4,280.1 323.7,278.3C330.2,282 336,285.2 342.2,288.7C338.7,294.8 335.5,301.7 341.9,308.2C347.8,314.3 355.1,313.2 363.5,311ZM352.5,359.2C353.1,359.4 353.7,359.5 354.3,359.7C355.5,355.8 356.8,351.8 358.2,347.4C352,351.7 350.7,354.6 352.5,359.2Z" style="fill:white;fill-rule:nonzero;"/>
    </g>
    <g transform="matrix(1,0,0,1,-137.947,-219.9)">
        <path d="M289.8,322.9C269,321.8 251.6,314 242.4,292.8C234.4,274.4 242.9,256.7 262.2,251.4C282.2,245.8 309.7,257.7 319.2,276C329.5,295.6 324,322.9 289.8,322.9ZM297.1,278.3C297,271.2 287.6,261.2 278.9,258.9C274,257.6 270.3,260.8 270.8,265.9C271.6,273.4 282.5,283.7 290,284.2C294.3,284.4 297.1,282.1 297.1,278.3Z" style="fill:white;fill-rule:nonzero;"/>
    </g>
    <g transform="matrix(1,0,0,1,-137.947,-219.9)">
        <path d="M333.9,253.8C338.4,259 343,264.1 347.4,269.3C348.4,270.4 349.1,271.7 349.9,273C355.7,282 355.3,283.2 345.2,286.6C344.2,286.9 342.9,286.8 341.9,286.3C322.9,277.2 311.1,261.7 303.5,242.5C303.4,242.3 303.7,241.9 304,241.2C306.1,241.7 308.3,242.2 310.4,242.6C310.7,250.8 318.4,259.8 326.4,261.7C331.1,263 332.8,261.2 333.9,253.8Z" style="fill:white;fill-rule:nonzero;"/>
    </g>
    <g transform="matrix(1,0,0,1,-137.947,-219.9)">
        <path d="M352.5,359.2C350.7,354.6 352,351.7 358.1,347.4C356.7,351.8 355.5,355.7 354.2,359.7C353.7,359.5 353.1,359.4 352.5,359.2Z" style="fill:black;fill-rule:nonzero;"/>
    </g>
    <g transform="matrix(1,0,0,1,-137.947,-219.9)">
        <path d="M297.1,278.3C297.1,282.1 294.3,284.4 290,284.1C282.5,283.6 271.6,273.3 270.8,265.8C270.2,260.8 273.9,257.6 278.9,258.8C287.6,261.2 297,271.2 297.1,278.3Z" style="fill:black;fill-rule:nonzero;"/>
    </g>
</svg>
